<svg xmlns="http://www.w3.org/2000/svg" fill="none" viewBox="0 0 14 14" id="Triangle-Arrow-Rotate-Right-2--Streamline-Core-Remix.svg" height="14" width="14"><desc>Triangle Arrow Rotate Right 2 Streamline Icon: https://streamlinehq.com</desc><g id="triangle-arrow-rotate-right-2"><path id="Union" fill="#000000" fill-rule="evenodd" d="M10.7949 3.03412 9.55747 4.27155c-0.143 0.143 -0.18577 0.35806 -0.10838 0.5449 0.07739 0.18684 0.25971 0.30866 0.46194 0.30866h3.35407c0.2762 0 0.5 -0.22386 0.5 -0.5V1.271c0 -0.20224 -0.1218 -0.384553 -0.3086 -0.461944 -0.1869 -0.07739 -0.4019 -0.034612 -0.5449 0.108387L11.8559 1.97312C10.6038 0.777441 8.90561 0.0418701 7.03647 0.0418701 3.18204 0.0418701 0.0574093 3.1665 0.0574093 7.02094 0.0574093 10.8754 3.18204 14 7.03647 14c3.49003 0 6.38043 -2.561 6.89703 -5.9063 0.0632 -0.40936 -0.2174 -0.79245 -0.6268 -0.85566 -0.4093 -0.06321 -0.7924 0.2174 -0.8556 0.62676C12.0457 10.49 9.77513 12.5 7.03647 12.5c-3.026 0 -5.47906 -2.4531 -5.47906 -5.47906 0 -3.02601 2.45306 -5.47907 5.47906 -5.47907 1.45491 0 2.77675 0.56631 3.75843 1.49225Z" clip-rule="evenodd" stroke-width="1"></path></g></svg>